<?xml version="1.0" encoding="iso-8859-1"?>
<!-- Uploaded to: SVG Repo, www.svgrepo.com, Generator: SVG Repo Mixer Tools -->
<!DOCTYPE svg PUBLIC "-//W3C//DTD SVG 1.1//EN" "http://www.w3.org/Graphics/SVG/1.1/DTD/svg11.dtd">
<svg version="1.1" id="Capa_1" xmlns="http://www.w3.org/2000/svg" xmlns:xlink="http://www.w3.org/1999/xlink" 
	 width="800px" height="800px" viewBox="0 0 404.943 404.943"
	 xml:space="preserve">
<g>
	<path d="M391.691,18.284H13.251C5.931,18.284,0,24.219,0,31.536v242.48c0,7.32,5.931,13.252,13.251,13.252h202.673v86.137
		c0,5.359,3.229,10.193,8.182,12.244c1.639,0.68,3.359,1.01,5.066,1.01c3.446,0,6.838-1.348,9.372-3.883l96.173-95.508h56.975
		c7.32,0,13.252-5.932,13.252-13.252V31.535C404.943,24.218,399.012,18.284,391.691,18.284z M183.972,77.039
		c0-10.201,8.299-18.5,18.5-18.5c10.202,0,18.5,8.299,18.5,18.5v101c0,10.201-8.299,18.5-18.5,18.5c-10.201,0-18.5-8.299-18.5-18.5
		V77.039z M202.472,247.739c-11.225,0-20.357-9.132-20.357-20.357s9.133-20.357,20.357-20.357c11.226,0,20.357,9.132,20.357,20.357
		C222.829,238.606,213.698,247.739,202.472,247.739z"/>
</g>
</svg>